HIERARCHY
ROOT SimulationBone
{
	OFFSET 0.000000 0.000000 0.000000
	CHANNELS 6 Xposition Yposition Zposition Zrotation Yrotation Xrotation 
	JOINT Hips
	{
		OFFSET 0.000000 0.000000 0.000000
		CHANNELS 6 Xposition Yposition Zposition Zrotation Yrotation Xrotation 
		JOINT LeftUpLeg
		{
			OFFSET 0.103457 1.857824 10.548504
			CHANNELS 3 Zrotation Yrotation Xrotation
			JOINT LeftLeg
			{
				OFFSET 43.500000 -0.000038 -0.000017
				CHANNELS 3 Zrotation Yrotation Xrotation
				JOINT LeftFoot
				{
					OFFSET 42.372200 0.000011 0.000019
					CHANNELS 3 Zrotation Yrotation Xrotation
					JOINT LeftToe
					{
						OFFSET 17.300011 0.000002 -0.000008
						CHANNELS 3 Zrotation Yrotation Xrotation
						End Site
						{
							OFFSET 0.000000 0.000000 0.000000
						}
					}
				}
			}
		}
		JOINT RightUpLeg
		{
			OFFSET 0.103457 1.857822 -10.548492
			CHANNELS 3 Zrotation Yrotation Xrotation
			JOINT RightLeg
			{
				OFFSET 43.500038 -0.000027 0.000036
				CHANNELS 3 Zrotation Yrotation Xrotation
				JOINT RightFoot
				{
					OFFSET 42.372261 0.000015 0.000010
					CHANNELS 3 Zrotation Yrotation Xrotation
					JOINT RightToe
					{
						OFFSET 17.299988 -0.000006 0.000008
						CHANNELS 3 Zrotation Yrotation Xrotation
						End Site
						{
							OFFSET 0.000000 0.000000 0.000000
						}
					}
				}
			}
		}
		JOINT Spine
		{
			OFFSET 6.901965 -2.603737 0.000006
			CHANNELS 3 Zrotation Yrotation Xrotation
			JOINT Spine1
			{
				OFFSET 12.588104 -0.000005 0.000007
				CHANNELS 3 Zrotation Yrotation Xrotation
				JOINT Spine2
				{
					OFFSET 12.343202 0.000026 -0.000008
					CHANNELS 3 Zrotation Yrotation Xrotation
					JOINT Neck
					{
						OFFSET 25.832890 -0.000029 -0.000007
						CHANNELS 3 Zrotation Yrotation Xrotation
						JOINT Head
						{
							OFFSET 11.766619 0.000021 0.000012
							CHANNELS 3 Zrotation Yrotation Xrotation
							End Site
							{
								OFFSET 0.000000 0.000000 0.000000
							}
						}
					}
					JOINT LeftShoulder
					{
						OFFSET 19.745909 -1.480377 6.000106
						CHANNELS 3 Zrotation Yrotation Xrotation
						JOINT LeftArm
						{
							OFFSET 11.284110 -0.000009 -0.000020
							CHANNELS 3 Zrotation Yrotation Xrotation
							JOINT LeftForeArm
							{
								OFFSET 33.000053 0.000014 0.000021
								CHANNELS 3 Zrotation Yrotation Xrotation
								JOINT LeftHand
								{
									OFFSET 25.200008 0.000006 -0.000004
									CHANNELS 3 Zrotation Yrotation Xrotation
									End Site
									{
										OFFSET 0.000000 0.000000 0.000000
									}
								}
							}
						}
					}
					JOINT RightShoulder
					{
						OFFSET 19.746101 -1.480381 -6.000081
						CHANNELS 3 Zrotation Yrotation Xrotation
						JOINT RightArm
						{
							OFFSET 11.284131 -0.000022 0.000003
							CHANNELS 3 Zrotation Yrotation Xrotation
							JOINT RightForeArm
							{
								OFFSET 33.000095 0.000014 0.000005
								CHANNELS 3 Zrotation Yrotation Xrotation
								JOINT RightHand
								{
									OFFSET 25.199774 0.000153 0.000423
									CHANNELS 3 Zrotation Yrotation Xrotation
									End Site
									{
										OFFSET 0.000000 0.000000 0.000000
									}
								}
							}
						}
					}
				}
			}
		}
	}
}
MOTION
Frames: 14
Frame Time: 0.016667
133.040260 0.000000 389.748231 0.000000 201.891278 0.000000 -6.902082 83.495712 -2.725085 87.279967 -2.383623 178.841663 159.476612 -18.007293 176.926379 -67.896321 -2.353278 -4.331764 82.657760 1.745684 -5.633964 21.454551 0.003091 0.000001 153.586351 8.033404 -178.175142 -56.933546 -2.631121 0.572873 98.986912 0.246327 7.113228 21.454558 -0.003108 -0.000018 11.937269 1.398130 -2.278295 13.808034 3.058305 -4.374518 13.490464 3.031994 -4.392859 8.582126 6.934098 -23.356764 -22.307610 15.882078 -30.421976 143.269096 -85.512212 35.322008 -23.060026 56.075192 20.440196 -48.866290 -22.606120 2.222658 1.713533 -16.851318 1.846529 -176.916011 69.555297 4.499026 -15.866330 -47.004900 -23.693449 -37.889787 20.537879 -1.790892 5.197199 8.640833 -2.826867 
132.079585 0.000000 389.538410 0.000000 200.805533 0.000000 -6.607730 83.443207 -2.724253 87.447777 -2.508796 178.856096 158.224117 -17.497850 177.678054 -69.846845 -2.771780 -2.458103 82.511620 0.500063 -5.438628 21.454553 0.003091 -0.000001 154.232386 7.719521 -178.543921 -57.227227 -2.629863 0.349662 99.489569 0.335597 6.686876 21.454559 -0.003110 -0.000018 11.909412 1.331916 -2.157080 13.757638 2.910996 -4.141364 13.440009 2.886092 -4.158825 8.712154 6.924376 -23.252048 -22.423434 15.704145 -30.277297 146.152725 -85.348065 32.435347 -23.093153 56.837903 20.798115 -48.129410 -22.447104 2.186035 2.576752 -16.654743 1.163963 -177.199954 69.582172 4.206835 -16.432500 -46.699230 -22.561542 -38.444726 20.780033 -1.821355 5.273497 9.320294 -3.018140 
131.052104 0.000000 389.429685 0.000000 199.743729 0.000000 -6.401124 83.384438 -2.699925 87.650182 -2.500886 178.961984 156.917299 -17.107500 177.958120 -71.243435 -3.099618 -1.259496 83.137109 -0.263751 -5.333081 21.454551 0.003093 0.000000 155.013506 7.412996 -178.628366 -57.424630 -2.697169 0.067501 99.942653 0.475132 6.277407 21.454560 -0.003109 -0.000018 11.899624 1.295054 -2.049223 13.741968 2.824442 -3.930894 13.424266 2.800806 -3.947841 8.777973 6.830222 -23.102601 -22.301835 15.486849 -30.026067 149.386967 -85.145487 29.196050 -22.982593 57.485459 21.633553 -47.085421 -22.383355 2.149992 3.031089 -16.654134 0.424470 -177.939938 69.618537 3.443116 -16.894427 -46.384749 -21.448881 -39.241977 21.083259 -1.861939 5.196326 10.166591 -3.857573 
129.961529 0.000000 389.415982 0.000000 198.706202 0.000000 -6.271459 83.345349 -2.652309 87.852980 -2.427000 179.144945 155.559813 -16.753360 177.817334 -72.066481 -3.325760 -0.594017 84.126416 -0.666346 -5.325483 21.454546 0.003095 0.000001 155.900455 7.145981 -178.563681 -57.487148 -2.775329 -0.240882 100.331317 0.641148 5.893869 21.454559 -0.003107 -0.000017 11.899049 1.273472 -1.952742 13.743901 2.769993 -3.741071 13.426127 2.747501 -3.757696 8.812633 6.670625 -22.951262 -22.151951 15.300305 -29.782761 152.568153 -84.923168 26.008535 -22.662276 58.032739 22.846275 -45.911002 -22.321233 2.109806 3.348301 -16.689090 -0.275001 -178.818482 69.676251 2.536562 -17.321312 -46.115912 -20.338829 -40.243979 21.430691 -1.911683 4.984223 11.104092 -5.080409 
128.811572 0.000000 389.491225 0.000000 197.693195 0.000000 -6.208212 83.351883 -2.582523 88.019441 -2.352599 179.390195 154.158052 -16.351502 177.301684 -72.299266 -3.418013 -0.318237 85.069616 -0.825554 -5.411341 21.454545 0.003096 0.000002 156.865772 6.953598 -178.483334 -57.376785 -2.805926 -0.543118 100.641102 0.809615 5.544818 21.454558 -0.003106 -0.000017 11.898772 1.253136 -1.865632 13.746081 2.719142 -3.569783 13.428249 2.697682 -3.586108 8.849454 6.464506 -22.840839 -22.181173 15.216500 -29.659853 155.408942 -84.705966 23.160888 -22.072254 58.491908 24.331054 -44.784282 -22.167193 2.063983 3.795083 -16.594197 -0.833133 -179.518053 69.772667 1.815922 -17.785190 -45.945145 -19.212648 -41.413048 21.805536 -1.969123 4.664672 12.056705 -6.419918 
127.605945 0.000000 389.649339 0.000000 196.704864 0.000000 -6.199683 83.427925 -2.490796 88.119134 -2.321970 179.683800 152.727269 -15.833641 176.493946 -71.922874 -3.376166 -0.317895 85.677506 -0.828253 -5.573338 21.454548 0.003095 0.000001 157.891159 6.855889 -178.464953 -57.057895 -2.768952 -0.818740 100.843319 0.967074 5.243108 21.454557 -0.003107 -0.000017 11.891487 1.223752 -1.785256 13.734210 2.650857 -3.413161 13.416341 2.630343 -3.429082 8.898273 6.252486 -22.792383 -22.506622 15.251599 -29.704062 157.788197 -84.525836 20.774303 -21.183982 58.881610 25.990529 -43.846887 -21.859254 2.014695 4.528377 -16.258199 -1.183479 -179.799539 69.925239 1.528579 -18.337626 -45.906505 -18.062483 -42.725350 22.189670 -2.032445 4.274291 12.970102 -7.689551 
126.348359 0.000000 389.884251 0.000000 195.741283 0.000000 -6.228287 83.589119 -2.371371 88.156814 -2.300970 -179.983204 151.319370 -15.193208 175.638752 -70.901153 -3.376538 -0.605230 86.147952 -0.636298 -5.746946 21.454553 0.003093 0.000000 158.989605 6.796599 -178.369953 -56.501369 -2.799090 -1.096680 100.851109 1.142631 5.019978 21.454557 -0.003109 -0.000017 11.876502 1.189884 -1.706462 13.706900 2.573628 -3.260404 13.389000 2.554037 -3.275865 8.873487 6.162338 -22.739281 -22.886053 15.197097 -29.699902 159.912100 -84.425238 18.639891 -20.076339 59.255202 27.774120 -43.089456 -21.461086 1.966670 5.280597 -15.799636 -1.415747 -179.748053 70.131211 1.585937 -18.936675 -45.968583 -16.933311 -44.213255 22.559196 -2.101142 3.842770 13.866601 -9.036275 
125.042527 0.000000 390.189884 0.000000 194.802450 0.000000 -6.275776 83.839909 -2.223955 88.149018 -2.241786 -179.620596 149.993334 -14.451407 174.969979 -69.208909 -3.583530 -1.165204 86.700418 -0.231211 -5.857693 21.454555 0.003090 -0.000000 160.173448 6.710129 -178.086312 -55.701067 -2.996954 -1.403265 100.588464 1.359591 4.894525 21.454558 -0.003110 -0.000017 11.854916 1.159902 -1.622900 13.666308 2.503444 -3.097833 13.348371 2.484833 -3.112873 8.702767 6.282518 -22.625444 -23.053467 14.877580 -29.454010 161.991741 -84.429193 16.544565 -18.837431 59.661251 29.649913 -42.461378 -21.048824 1.921666 5.739307 -15.328311 -1.603032 -179.508284 70.371770 1.837614 -19.502148 -46.079507 -15.881971 -45.917514 22.885286 -2.174944 3.381017 14.740512 -10.601021 
123.692161 0.000000 390.560165 0.000000 193.888294 0.000000 -6.328764 84.148178 -2.073027 88.117310 -2.118495 -179.247164 148.786121 -13.720309 174.517699 -66.889749 -3.968741 -1.728016 87.155132 0.199486 -5.845147 21.454555 0.003088 -0.000000 161.424117 6.594802 -177.816011 -54.742691 -3.175635 -1.692646 100.081299 1.576366 4.820682 21.454560 -0.003110 -0.000018 11.828342 1.142564 -1.525945 13.615705 2.456819 -2.907178 13.297722 2.439358 -2.921941 8.462483 6.456237 -22.524639 -23.007950 14.464107 -29.133341 163.874991 -84.494680 14.644064 -17.509300 60.085418 31.591752 -41.902137 -20.622725 1.877271 5.827911 -14.687690 -1.566763 -179.136956 70.592222 2.224122 -19.902870 -46.163991 -14.952780 -47.856409 23.125400 -2.253848 2.869096 15.406035 -12.157172 
122.300972 0.000000 390.989019 0.000000 192.998678 0.000000 -6.377316 84.485347 -1.941636 88.076473 -1.933117 -178.893207 147.743846 -13.082402 174.225333 -63.982046 -4.440671 -2.045795 87.260700 0.471396 -5.678734 21.454554 0.003088 0.000000 162.718824 6.478050 -177.788718 -53.705230 -3.142690 -1.907101 99.375602 1.745740 4.748132 21.454562 -0.003111 -0.000018 11.796730 1.138993 -1.409414 13.555151 2.435306 -2.675981 13.237118 2.419242 -2.690622 8.260040 6.525113 -22.508059 -22.852478 14.163191 -28.940141 165.345675 -84.580213 13.158214 -16.095157 60.495932 33.603516 -41.378446 -20.171883 1.832638 5.572223 -13.732480 -1.164531 -178.735597 70.746393 2.640245 -20.019644 -46.167229 -14.196391 -50.005882 23.250453 -2.334678 2.314611 15.727266 -13.430418 
120.872672 0.000000 391.470371 0.000000 192.133412 0.000000 -6.414594 84.873558 -1.820895 88.006030 -1.774763 -178.626151 146.968635 -12.404009 173.874282 -60.422974 -4.773470 -2.205858 86.874527 0.622139 -5.409397 21.454553 0.003089 -0.000000 164.044970 6.404908 -178.033744 -52.538241 -2.961523 -2.040141 98.496449 1.862928 4.671476 21.454562 -0.003111 -0.000018 11.752740 1.119370 -1.279120 13.470336 2.380071 -2.419457 13.152257 2.365557 -2.433774 8.181556 6.573262 -22.512052 -22.855626 13.980116 -28.857739 166.599116 -84.705563 11.889909 -14.467368 60.846929 35.824505 -40.973682 -19.717131 1.791967 5.150191 -12.634481 -0.642321 -178.658938 70.858688 2.720953 -19.847709 -46.131343 -13.687066 -52.198709 23.299169 -2.413173 1.796231 15.937468 -14.352872 
119.410974 0.000000 391.998146 0.000000 191.292249 0.000000 -6.432390 85.330028 -1.697744 87.896065 -1.715111 -178.496194 146.546777 -11.552092 173.285134 -56.180804 -4.732134 -2.286909 85.963536 0.689323 -5.155312 21.454552 0.003091 0.000000 165.400540 6.410111 -178.475617 -51.199818 -2.757559 -2.119710 97.455709 1.947035 4.584835 21.454558 -0.003108 -0.000017 11.692096 1.059248 -1.141746 13.352760 2.243192 -2.153777 13.034640 2.230284 -2.167273 8.283522 6.696253 -22.465667 -23.214844 13.871510 -28.824409 167.862868 -84.882702 10.609997 -12.521409 61.088902 38.346971 -40.771713 -19.270476 1.757264 4.702349 -11.596071 -0.225969 -179.132043 70.963103 2.235094 -19.441923 -46.101978 -13.468949 -54.259811 23.312976 -2.487445 1.369098 16.244499 -14.955718 
117.919589 0.000000 392.566269 0.000000 190.474898 0.000000 -6.417529 85.801567 -1.573810 87.828712 -1.673128 -178.447844 146.468433 -10.595092 172.602118 -51.452009 -4.240011 -2.082182 84.825273 0.474410 -5.225164 21.454553 0.003091 0.000000 166.817781 6.470092 -178.825527 -49.817186 -2.649021 -2.249516 96.232945 2.068705 4.433860 21.454555 -0.003106 -0.000017 11.630590 0.986477 -0.995654 13.233473 2.080356 -1.872035 12.915315 2.069150 -1.884553 8.524128 6.791039 -22.401431 -23.672304 13.799529 -28.819979 168.866876 -85.041825 9.593096 -10.366877 61.207639 40.948184 -40.744574 -18.776211 1.724123 4.123392 -10.605301 0.287110 -179.590084 71.062808 1.764889 -18.970728 -46.050524 -13.450749 -56.120238 23.274901 -2.553820 0.975305 16.378228 -15.430220 
116.402230 0.000000 393.168666 0.000000 189.681026 0.000000 -6.355920 86.227902 -1.453785 87.878230 -1.546778 -178.409303 146.677558 -9.631978 172.119914 -46.484508 -3.376172 -1.407117 83.814714 -0.175569 -5.774504 21.454554 0.003090 -0.000001 168.322285 6.535857 -178.862083 -48.524724 -2.680162 -2.511068 94.815246 2.275841 4.166587 21.454554 -0.003106 -0.000017 11.582150 0.935282 -0.840262 13.139932 1.959920 -1.568908 12.821738 1.950545 -1.580705 8.829110 6.758030 -22.363993 -23.934272 13.726433 -28.827187 169.300546 -85.109484 9.154118 -8.158915 61.210197 43.386595 -40.826753 -18.202693 1.689155 3.344915 -9.591433 1.081385 -179.477313 71.161797 1.882790 -18.581659 -45.946045 -13.537817 -57.738276 23.162418 -2.607285 0.568651 16.089214 -15.934506 
